<svg version="1.1" id="Layer_1" xmlns="http://www.w3.org/2000/svg" xmlns:xlink="http://www.w3.org/1999/xlink" x="0px" y="0px"
	 width="100%" viewBox="0 0 1047 251" enable-background="new 0 0 1047 251" xml:space="preserve">
<path fill="#000000" opacity="1.000000" stroke="none" 
	d="
M1048.000000,131.000000 
	C1048.000000,171.316376 1048.000000,211.632751 1048.000000,252.000000 
	C747.643372,252.000000 447.286682,252.000000 146.464905,251.531342 
	C145.999786,236.153198 145.999786,221.243698 145.999786,206.000412 
	C143.358398,206.000412 141.544952,206.000443 139.731506,206.000381 
	C127.572937,206.000015 115.413612,206.063110 103.256729,205.919769 
	C101.719376,205.901657 99.485100,205.246552 98.781181,204.127228 
	C94.666328,197.584015 90.896400,190.823105 87.037521,184.119843 
	C77.760178,168.004227 68.744896,151.730072 59.101288,135.836975 
	C55.530811,129.952667 54.087765,125.658180 58.253216,118.862991 
	C71.836433,96.704384 84.383240,73.910141 97.307747,51.348392 
	C99.074463,48.264309 101.232407,46.750668 105.196861,46.872540 
	C116.844757,47.230602 128.510742,46.999977 140.169647,46.999870 
	C141.942841,46.999855 143.716049,46.999870 146.000000,46.999870 
	C146.000000,31.231512 146.000000,16.115755 146.000000,1.000000 
	C446.666656,1.000000 747.333313,1.000000 1048.000000,1.000000 
	C1048.000000,17.084429 1048.000000,33.077202 1047.531372,49.535149 
	C1030.485474,50.000320 1013.908325,50.000320 997.363220,50.000320 
	C997.363220,55.074348 997.363220,59.316467 997.363220,64.086487 
	C1003.296021,64.086487 1008.882446,64.086487 1015.153198,64.086487 
	C1015.153198,79.975403 1015.153198,95.343391 1015.153198,110.620422 
	C1020.441040,110.620422 1025.015747,110.620422 1030.112305,110.620422 
	C1030.112305,95.005798 1030.112305,79.763710 1030.112305,64.000000 
	C1036.423706,64.000000 1042.211914,64.000000 1048.000000,64.000000 
	C1048.000000,85.023323 1048.000000,106.046654 1047.533936,127.534988 
	C790.785645,127.999992 534.503357,127.999992 277.607300,127.999992 
	C278.287201,129.690018 278.457855,130.487442 278.629181,130.487579 
	C535.086121,130.693573 791.543030,130.846649 1048.000000,131.000000 
M307.371368,64.684059 
	C310.510742,65.984787 313.650085,67.285515 317.350586,68.818741 
	C318.322052,66.789139 319.219086,64.915009 320.691986,62.645069 
	C321.013214,60.053944 325.746155,57.457958 320.596375,54.873943 
	C311.440338,50.279701 301.828125,48.139503 291.889130,51.232895 
	C279.344025,55.137409 274.610565,71.015778 282.172211,79.664291 
	C285.244934,83.178658 290.643036,84.779968 295.157562,86.875977 
	C298.840149,88.585732 302.887085,89.516998 306.547333,91.264915 
	C307.685974,91.808655 309.024597,94.376579 308.618103,95.162598 
	C307.942749,96.468376 305.911926,97.870125 304.484558,97.836823 
	C300.583099,97.745819 296.532074,97.457764 292.838318,96.298302 
	C281.355835,92.693924 281.406769,92.522057 276.333435,103.401718 
	C276.210938,103.664413 276.318024,104.034164 276.318024,104.500183 
	C284.918304,109.710747 294.334076,112.500366 304.463715,111.900375 
	C310.737518,111.528786 317.296356,110.325554 321.327332,104.941017 
	C327.909393,96.148773 326.658630,81.608635 314.494019,77.225166 
	C311.255219,76.058060 307.932983,75.122795 304.691986,73.961258 
	C301.795197,72.923065 298.698090,72.123352 296.157501,70.490173 
	C292.734741,68.289902 293.564423,65.220482 296.947388,64.241463 
	C300.036377,63.347507 303.598419,64.087967 307.371368,64.684059 
M181.086548,189.998291 
	C170.168396,189.998291 159.250244,189.998291 148.365891,189.998291 
	C148.365891,203.074707 148.365891,215.314774 148.365891,227.531845 
	C149.188843,227.726135 149.660950,227.934311 150.133423,227.935150 
	C167.795609,227.966583 185.459854,228.101517 203.117050,227.811676 
	C204.964828,227.781357 207.400970,225.601776 208.491531,223.778015 
	C214.322571,214.026779 219.750153,204.035583 225.434021,194.194809 
	C237.458633,173.375992 249.374481,152.489899 261.772552,131.894852 
	C264.314484,127.672310 263.687378,124.688828 261.539520,121.092682 
	C257.235229,113.885948 252.975632,106.651894 248.761185,99.392197 
	C235.200836,76.033401 221.601761,52.696381 208.222015,29.234406 
	C206.734421,26.625843 205.186478,25.936100 202.449692,25.952196 
	C185.954102,26.049210 169.457626,25.992580 152.961487,26.013054 
	C151.380966,26.015015 149.800690,26.193377 148.413269,26.278067 
	C148.413269,38.839382 148.413269,50.746796 148.413269,63.000942 
	C159.468124,63.000942 170.114365,63.070793 180.758438,62.950802 
	C183.352539,62.921558 184.866592,63.550282 186.141113,66.069145 
	C188.813873,71.351295 192.028687,76.358040 194.992813,81.494110 
	C203.141586,95.613983 211.347382,109.702187 219.311478,123.925629 
	C220.160706,125.442276 220.339462,128.207855 219.520844,129.652786 
	C208.644318,148.850540 197.577118,167.941177 186.392502,186.961548 
	C185.573120,188.355011 183.482635,189.001038 181.086548,189.998291 
M141.087601,125.495613 
	C144.566681,118.341774 145.144302,111.200081 141.014771,104.069725 
	C137.202774,97.487656 128.829666,95.091408 124.141693,99.475632 
	C122.768600,100.759766 122.203178,102.907524 121.267578,104.659462 
	C123.224358,104.914345 125.331047,105.751747 127.104752,105.295265 
	C130.200836,104.498466 132.362579,105.520828 132.913498,108.191078 
	C133.579056,111.417046 134.043777,115.096069 133.138931,118.147034 
	C131.364639,124.129654 126.512100,126.701256 119.990303,127.056221 
	C111.565376,127.514778 102.073540,123.875572 95.355537,133.494339 
	C94.197403,130.151764 92.380180,126.481377 93.506783,124.419495 
	C100.991165,110.721855 109.294266,97.473305 116.877342,83.826576 
	C118.676918,80.588005 120.600906,79.878960 123.835457,79.949989 
	C131.105698,80.109627 138.381866,80.000038 145.664459,80.000038 
	C145.664459,70.699127 145.664459,61.974705 145.664459,52.999977 
	C133.684555,52.999977 122.012428,53.457634 110.401138,52.815315 
	C104.189827,52.471718 101.243935,54.813541 98.377014,59.934727 
	C87.969231,78.526100 77.314430,96.992134 66.215096,115.177254 
	C61.537804,122.840523 59.540115,129.744293 66.016037,137.138351 
	C66.117241,137.253891 66.126816,137.444717 66.207123,137.584305 
	C77.809113,157.751968 89.378410,177.938721 101.098221,198.037704 
	C101.873108,199.366623 103.782722,200.847412 105.186554,200.869659 
	C118.635727,201.082901 132.089630,200.997208 145.717697,200.997208 
	C145.717697,191.476227 145.717697,182.419846 145.717697,173.000397 
	C137.807144,173.000397 130.161728,173.235550 122.549217,172.839127 
	C120.585571,172.736877 118.025253,171.093460 116.947784,169.392365 
	C113.617058,164.133911 115.628769,158.767319 119.085083,154.720734 
	C123.387314,149.683762 128.806030,145.606384 133.679520,141.047165 
	C134.907700,139.898178 136.269928,138.656082 136.919159,137.171844 
	C138.467804,133.631439 139.627823,129.921066 141.087601,125.495613 
M165.060394,98.072754 
	C153.155319,97.206749 148.581436,99.898712 146.644302,111.297821 
	C145.866608,115.874290 148.023239,121.132805 149.541122,125.857010 
	C150.721603,129.531036 152.943115,132.878815 154.779373,136.330414 
	C155.702591,138.065796 156.533707,139.962982 157.862823,141.349548 
	C162.870117,146.573318 168.318436,151.392761 173.108810,156.800186 
	C176.909180,161.090088 174.580811,165.573578 172.563416,170.106339 
	C170.803970,174.059555 167.752167,172.897034 164.985443,172.961731 
	C159.398041,173.092392 153.805420,173.000687 148.298157,173.000687 
	C148.298157,177.716721 148.298157,181.644440 148.298157,185.999725 
	C157.884293,185.999725 167.197342,185.652939 176.466522,186.140366 
	C181.386093,186.399063 183.769119,184.358475 185.968292,180.433517 
	C195.088364,164.156662 204.295151,147.923492 213.822968,131.883881 
	C215.870941,128.436188 216.237778,125.944183 214.203568,122.469818 
	C204.694504,106.228569 195.159729,89.992111 186.175079,73.459969 
	C183.264969,68.105255 179.789963,66.531120 174.004822,66.869484 
	C165.444489,67.370178 156.833160,66.998940 148.286438,66.998940 
	C148.286438,71.693047 148.286438,75.620735 148.286438,80.001122 
	C154.190445,80.001122 159.828064,79.808708 165.436768,80.126633 
	C166.978302,80.214005 169.028275,81.465683 169.836258,82.795822 
	C178.075104,96.359192 186.054077,110.080154 194.240692,123.675774 
	C195.738785,126.163666 195.868835,127.983604 193.562698,128.819229 
	C189.865967,127.430000 186.199280,126.282318 182.497009,126.152969 
	C177.911362,125.992760 173.286224,127.041801 168.696030,126.915871 
	C160.555954,126.692551 154.101456,116.988373 157.297089,109.732574 
	C158.213333,107.652252 159.771790,104.972000 163.483002,106.608253 
	C165.244431,107.384872 167.631866,106.741653 169.732910,106.741653 
	C170.468094,102.729012 169.408051,99.930962 165.060394,98.072754 
M804.000122,83.500000 
	C804.000122,92.566925 804.000122,101.633850 804.000122,110.981979 
	C816.144165,110.981979 827.448975,111.287666 838.728210,110.881882 
	C847.218811,110.576431 853.237976,105.390968 854.651611,97.468117 
	C856.067566,89.532265 852.147888,83.872520 845.223755,79.823769 
	C845.798096,79.380554 846.119019,79.127655 846.445312,78.881859 
	C852.102112,74.620483 852.969116,68.415733 851.740051,62.337833 
	C850.535339,56.379848 847.080322,50.934166 840.106140,50.689713 
	C828.247559,50.274048 816.363831,50.575306 804.000122,50.575306 
	C804.000122,61.285831 804.000122,71.892914 804.000122,83.500000 
M574.040039,80.571068 
	C581.628296,89.903603 589.191101,99.257126 596.840820,108.539001 
	C597.684998,109.563278 598.973145,110.763855 600.147766,110.871140 
	C603.566406,111.183395 607.031860,110.981934 610.564209,110.981934 
	C610.564209,90.343681 610.564209,70.320999 610.564209,50.386497 
	C605.546570,50.386497 600.971252,50.386497 595.750732,50.386497 
	C595.750732,61.245884 595.750732,71.733330 595.750732,83.012733 
	C594.265503,81.628418 593.447144,81.031693 592.834900,80.269348 
	C586.236145,72.052628 579.063721,64.209091 573.290710,55.445011 
	C568.852966,48.707985 563.423584,49.815479 557.325073,50.436432 
	C557.325073,70.669258 557.325073,90.572899 557.325073,110.548447 
	C562.352234,110.548447 567.047424,110.548447 572.000244,110.548447 
	C572.000244,101.277901 571.943359,92.455643 572.067810,83.635956 
	C572.084534,82.451561 573.015991,81.280067 574.040039,80.571068 
M920.007690,100.528664 
	C926.856812,111.065918 930.519165,112.854034 939.646606,110.145966 
	C939.646606,90.242943 939.646606,70.352592 939.646606,50.298912 
	C935.052063,50.298912 930.813171,50.298912 925.962280,50.298912 
	C925.962280,61.421551 925.962280,72.261780 925.962280,84.443405 
	C918.028198,74.502869 910.838989,65.809723 904.012085,56.840752 
	C898.749451,49.926971 896.154480,48.725868 887.452393,50.709717 
	C887.452393,70.718620 887.452393,90.728004 887.452393,110.601936 
	C892.484253,110.601936 897.056763,110.601936 902.267212,110.601936 
	C902.267212,100.079842 902.267212,89.941864 902.267212,78.814560 
	C908.521545,86.503395 914.014954,93.256706 920.007690,100.528664 
M493.016449,59.541763 
	C489.614655,57.323040 486.449982,54.540970 482.766876,52.990490 
	C471.392975,48.202377 459.390900,50.469662 447.380646,49.999493 
	C447.380646,70.585548 447.380646,90.585747 447.380646,110.967590 
	C456.878754,110.967590 466.063293,111.628708 475.107117,110.783684 
	C484.354767,109.919624 491.834229,105.315033 496.199829,96.503265 
	C502.501862,83.782867 501.027283,71.732658 493.016449,59.541763 
M383.000183,60.533218 
	C383.000244,67.862877 382.925385,75.193466 383.016602,82.521996 
	C383.185394,96.085617 390.034851,109.578438 405.607544,111.542381 
	C417.382660,113.027390 432.058716,106.972984 435.068909,94.783806 
	C436.006470,90.987282 436.825500,87.059860 436.913605,83.174553 
	C437.161224,72.255898 437.000000,61.327965 437.000000,50.327965 
	C431.665527,50.327965 427.090881,50.327965 422.277069,50.327965 
	C422.170654,51.764378 422.016479,52.894501 422.014191,54.024937 
	C421.993378,64.186478 422.076019,74.348869 421.970490,84.509361 
	C421.899292,91.364555 417.221344,97.409927 411.826935,97.983307 
	C404.861298,98.723679 400.265015,95.564308 398.978394,87.446457 
	C397.873352,80.474152 398.193756,73.265892 398.024414,66.158615 
	C397.899139,60.900459 397.999817,55.636917 397.999817,50.337326 
	C392.644348,50.337326 388.070007,50.337326 383.000183,50.337326 
	C383.000183,53.627953 383.000183,56.588200 383.000183,60.533218 
M962.523682,111.000046 
	C972.928711,111.000046 983.333679,111.000046 993.610107,111.000046 
	C993.610107,106.204170 993.610107,102.296143 993.610107,97.871323 
	C984.317322,97.871323 975.406189,97.871323 966.453552,97.871323 
	C966.453552,93.643951 966.453552,89.954300 966.453552,85.744843 
	C974.149597,85.744843 981.396912,85.744843 988.659424,85.744843 
	C988.659424,81.634949 988.659424,78.058815 988.659424,73.965714 
	C981.083801,73.965714 973.835144,73.965714 966.405029,73.965714 
	C966.405029,70.407898 966.405029,67.385910 966.405029,63.840118 
	C975.377563,63.840118 983.958130,63.840118 992.708557,63.840118 
	C992.708557,59.068691 992.708557,54.829174 992.708557,50.405270 
	C978.730957,50.405270 965.047913,50.405270 951.333984,50.405270 
	C951.333984,70.705971 951.333984,90.599953 951.333984,111.000046 
	C954.951721,111.000046 958.242493,111.000046 962.523682,111.000046 
M539.451660,50.000275 
	C528.717285,50.000275 517.982910,50.000275 507.382263,50.000275 
	C507.382263,70.802338 507.382263,90.697449 507.382263,110.683014 
	C521.665710,110.683014 535.565063,110.683014 549.558655,110.683014 
	C549.558655,106.334877 549.558655,102.311569 549.558655,97.769913 
	C540.210876,97.769913 531.299438,97.769913 522.326477,97.769913 
	C522.326477,93.662521 522.326477,90.086922 522.326477,85.816940 
	C530.009644,85.816940 537.385986,85.816940 544.606812,85.816940 
	C544.606812,81.531570 544.606812,77.955162 544.606812,73.864586 
	C536.973572,73.864586 529.725891,73.864586 522.459106,73.864586 
	C522.459106,70.298912 522.459106,67.279480 522.459106,63.999725 
	C527.235535,63.999725 531.555542,63.999725 535.875549,63.999725 
	C540.129700,63.999725 544.383850,63.999725 548.655640,63.999725 
	C548.655640,58.961449 548.655640,54.720840 548.655640,50.000275 
	C545.689697,50.000275 543.062195,50.000275 539.451660,50.000275 
M783.010559,107.560844 
	C783.996826,108.694244 784.903442,110.707710 785.983521,110.805489 
	C790.194641,111.186722 794.460754,110.961006 799.600403,110.961006 
	C792.009338,90.074135 784.746887,70.091469 777.446167,50.003468 
	C773.947205,50.003468 770.732544,49.640629 767.661926,50.148487 
	C765.994934,50.424194 763.735718,51.858379 763.171021,53.321083 
	C757.964294,66.808136 753.031921,80.402000 748.102722,93.994873 
	C746.115601,99.474625 744.334167,105.028954 742.373230,110.802124 
	C747.826782,110.802124 752.623779,110.802124 757.543030,110.802124 
	C758.510925,107.868729 759.618347,105.120285 760.305481,102.270538 
	C761.096924,98.987923 762.753296,97.398239 766.256348,97.966553 
	C767.554260,98.177132 768.915161,97.999794 770.247314,97.999756 
	C779.593323,97.999458 779.593323,97.999496 783.010559,107.560844 
M702.970215,83.649467 
	C701.397583,76.872856 704.649475,68.908203 710.484497,65.245064 
	C715.661926,61.994789 723.013672,62.989250 728.511108,68.124222 
	C730.767822,70.232109 732.776001,70.432968 735.134766,68.917824 
	C737.561707,67.358849 739.880249,65.631203 742.104187,64.076698 
	C738.441833,53.618652 725.514160,48.333317 713.675598,50.180580 
	C696.983398,52.785210 688.560242,62.971622 687.318359,79.333939 
	C686.427185,91.075073 693.259583,105.464279 708.232178,110.149864 
	C722.142334,114.502975 735.497498,109.871490 743.243896,97.193329 
	C739.133972,94.724998 735.029602,92.259979 731.308289,90.025063 
	C729.435974,92.063576 728.248962,93.896263 726.594238,95.068939 
	C716.695740,102.083824 706.024658,97.233620 702.970215,83.649467 
M731.879578,168.898132 
	C731.581482,167.623611 731.279663,166.349945 730.985962,165.074417 
	C729.498962,158.617935 726.622009,152.934692 721.090454,149.070053 
	C710.843323,141.910812 698.409485,142.086884 688.383606,149.295395 
	C679.537842,155.655380 675.887146,168.269318 679.496887,180.001266 
	C682.896606,191.050858 695.182434,200.119232 705.636292,198.879974 
	C721.999268,196.940201 731.510315,186.365067 731.879578,168.898132 
M514.005127,168.203156 
	C513.470398,149.381668 493.600525,138.306305 476.157654,146.508041 
	C463.057648,152.667740 459.346466,165.028992 461.338409,176.116196 
	C463.688385,189.196136 474.966675,198.378586 488.187958,198.379517 
	C502.177612,198.380508 516.734192,184.894226 514.005127,168.203156 
M569.202759,147.076263 
	C554.954102,140.063690 539.549255,144.423340 532.074097,157.945847 
	C522.423706,175.403336 535.270386,198.960831 555.979248,198.397156 
	C572.097412,197.958450 584.002014,183.093445 582.219299,168.825195 
	C581.078979,159.699326 577.165710,152.731628 569.202759,147.076263 
M396.999939,167.500031 
	C396.999939,177.570999 396.999939,187.641983 396.999939,197.620148 
	C401.774261,197.620148 405.680450,197.620148 410.110199,197.620148 
	C410.110199,190.340546 410.110199,183.430908 410.110199,176.442200 
	C417.338562,176.442200 424.025848,176.442200 431.233765,176.442200 
	C431.233765,183.788879 431.233765,190.703644 431.233765,197.669434 
	C435.675995,197.669434 439.581909,197.669434 443.569214,197.669434 
	C443.569214,179.659241 443.569214,161.982651 443.569214,144.378799 
	C439.223297,144.378799 435.318329,144.378799 430.890442,144.378799 
	C430.890442,151.324020 430.890442,157.902145 430.890442,164.558075 
	C423.661926,164.558075 416.974670,164.558075 409.766602,164.558075 
	C409.766602,157.543381 409.766602,150.965286 409.766602,144.329803 
	C405.324127,144.329803 401.418121,144.329803 396.999939,144.329803 
	C396.999939,151.933777 396.999939,159.216919 396.999939,167.500031 
M949.000000,160.502426 
	C949.000000,172.901657 949.000000,185.300888 949.000000,197.634399 
	C962.100952,197.634399 974.333496,197.634399 986.686646,197.634399 
	C986.686646,193.692337 986.686646,190.118927 986.686646,185.851349 
	C978.351990,185.851349 970.310669,185.851349 962.377319,185.851349 
	C962.377319,182.234497 962.377319,179.323196 962.377319,175.895874 
	C969.320557,175.895874 975.900452,175.895874 982.555664,175.895874 
	C982.555664,171.999893 982.555664,168.646378 982.555664,164.773712 
	C975.535767,164.773712 968.953125,164.773712 962.326294,164.773712 
	C962.326294,161.664871 962.326294,159.088013 962.326294,155.818909 
	C970.671326,155.818909 978.711731,155.818909 986.608398,155.818909 
	C986.608398,151.531631 986.608398,147.958817 986.608398,144.327652 
	C973.984131,144.327652 961.754333,144.327652 949.000000,144.327652 
	C949.000000,149.598282 949.000000,154.551300 949.000000,160.502426 
M278.379791,152.205673 
	C277.772064,156.495728 276.243835,160.898270 276.751465,165.052032 
	C277.756134,173.273117 285.193329,174.693817 291.516968,176.950745 
	C294.436066,177.992599 297.516052,178.664642 300.291748,179.989166 
	C301.474365,180.553513 302.568695,182.301056 302.721130,183.624054 
	C302.802826,184.333389 300.801819,185.991486 299.739960,185.992096 
	C296.431061,185.993958 293.066254,185.669159 289.829010,184.976303 
	C286.808472,184.329849 283.611053,181.792679 281.071442,182.423309 
	C278.786499,182.990707 277.288818,186.727859 275.443451,189.066544 
	C274.951660,189.689804 274.458252,190.311783 273.657379,191.323746 
	C275.330200,192.543274 276.607697,194.103775 278.184479,194.514099 
	C284.657013,196.198441 291.184937,198.426682 297.763062,198.689621 
	C302.349854,198.872955 307.882599,197.299393 311.542389,194.567551 
	C321.645477,187.026169 318.355194,171.576355 306.132263,167.133087 
	C301.827332,165.568176 297.301910,164.582184 293.072235,162.854279 
	C291.769440,162.322083 291.112823,160.207993 290.160339,158.818253 
	C291.581879,157.883560 293.007538,156.165298 294.424042,156.172806 
	C297.646149,156.189896 301.035034,156.581055 304.048279,157.671173 
	C310.786163,160.108841 310.804321,160.287598 314.073456,153.729279 
	C314.723694,152.424835 315.331116,151.099060 315.946381,149.808105 
	C301.512115,141.070053 288.602173,141.761322 278.379791,152.205673 
M912.162476,186.876205 
	C908.022156,185.912613 903.878418,184.963211 899.742188,183.982330 
	C892.421448,182.246231 892.539978,182.293304 889.296265,189.161850 
	C888.175842,191.534454 888.669739,192.988510 890.810059,193.882843 
	C900.329407,197.860535 909.926636,200.814682 920.402283,197.291626 
	C928.675964,194.509094 930.974792,189.880798 931.792725,182.864563 
	C932.639526,175.600708 929.195007,170.748901 921.656433,167.904129 
	C917.217834,166.229187 912.508911,165.242371 908.144104,163.414673 
	C906.485962,162.720383 905.451477,160.536880 904.132751,159.032089 
	C905.827637,158.022873 907.565552,156.111908 909.208496,156.190353 
	C912.733643,156.358704 916.256897,157.390686 919.689758,158.384125 
	C922.058960,159.069733 924.208130,161.677002 926.179626,157.591217 
	C928.715637,152.335709 928.802917,148.807205 925.227539,147.170044 
	C916.291748,143.078522 907.151306,142.081451 898.120605,146.998489 
	C892.201416,150.221375 890.298096,156.067886 890.318237,162.047348 
	C890.339783,168.440277 894.092407,172.998566 900.463867,174.998474 
	C904.698914,176.327850 908.998901,177.518661 913.087524,179.211716 
	C914.638611,179.854019 915.678772,181.730042 916.951843,183.043777 
	C915.603882,184.216446 914.255920,185.389114 912.162476,186.876205 
M658.517334,63.999725 
	C661.591309,63.999725 664.665222,63.999725 667.608643,63.999725 
	C667.608643,58.862434 667.608643,54.623814 667.608643,50.312786 
	C650.659302,50.312786 634.102966,50.312786 617.433289,50.312786 
	C617.433289,54.991692 617.433289,59.345036 617.433289,64.218681 
	C623.437866,64.218681 629.013855,64.218681 635.084595,64.218681 
	C635.084595,79.972038 635.084595,95.201645 635.084595,110.581268 
	C640.291504,110.581268 644.980286,110.581268 650.172119,110.581268 
	C650.172119,94.938553 650.172119,79.709572 650.172119,63.999729 
	C652.972229,63.999729 655.264526,63.999729 658.517334,63.999725 
M333.594177,63.999683 
	C337.208221,63.999683 340.822296,63.999683 345.106018,63.999683 
	C345.106018,79.932671 345.106018,95.287064 345.106018,110.658913 
	C350.370453,110.658913 354.941345,110.658913 360.195007,110.658913 
	C360.195007,94.977043 360.195007,79.624535 360.195007,63.762733 
	C366.458008,63.762733 372.034943,63.762733 377.672546,63.762733 
	C377.672546,58.989960 377.672546,54.752163 377.672546,50.425720 
	C360.666260,50.425720 343.990814,50.425720 327.371094,50.425720 
	C327.371094,55.095070 327.371094,59.333435 327.371094,63.999542 
	C329.372467,63.999542 331.005859,63.999542 333.594177,63.999683 
M333.403229,161.142532 
	C333.153595,166.833267 331.413696,172.960175 332.928162,178.134583 
	C337.867615,195.011032 348.837952,199.855545 364.599609,197.764160 
	C371.846863,196.802521 378.023376,192.995895 380.997406,185.583405 
	C373.629303,180.488907 372.288635,180.582336 365.589447,184.591141 
	C363.423615,185.887146 360.638062,186.779556 358.142181,186.765396 
	C352.251038,186.731979 346.731354,180.653946 345.166260,173.230270 
	C344.024597,167.815125 347.665894,160.081161 352.752106,157.118423 
	C357.418579,154.400146 364.032501,155.877625 368.916992,160.643265 
	C369.536804,161.247971 370.805450,162.098312 371.213837,161.863098 
	C374.153320,160.169983 377.504303,158.653641 379.461243,156.109390 
	C380.073639,155.313156 377.277802,150.980545 375.224548,149.220337 
	C369.040985,143.919327 361.280640,142.852081 353.720001,144.225449 
	C344.455719,145.908279 336.958679,150.761597 333.403229,161.142532 
M854.242554,186.858551 
	C847.943542,186.376068 843.587708,183.397034 841.108276,177.404526 
	C838.808960,171.847565 840.475708,162.372375 844.748901,159.085556 
	C850.919678,154.339172 856.388733,154.804779 862.905273,160.254074 
	C864.073608,161.231110 866.390442,161.979553 867.666748,161.493546 
	C874.945374,158.721954 875.627441,154.883179 869.914978,149.499863 
	C868.272766,147.952316 866.289307,146.446136 864.188293,145.760452 
	C853.682556,142.331726 843.494690,142.849976 835.023071,150.624390 
	C826.598450,158.355621 824.801880,168.510788 827.709961,179.112396 
	C833.078186,198.683014 854.575684,203.158752 869.690918,193.470352 
	C875.270081,189.894287 877.019958,186.096603 869.466309,181.760818 
	C868.092407,180.972214 866.783508,180.070435 865.444580,179.220901 
	C865.558044,179.674469 865.671509,180.128052 865.784973,180.581619 
	C862.173950,182.563553 858.562988,184.545486 854.242554,186.858551 
M775.390625,165.999557 
	C771.107300,165.999557 766.824036,165.999557 762.434509,165.999557 
	C762.434509,162.357529 762.434509,159.335266 762.434509,155.782547 
	C770.443420,155.782547 778.026062,155.782547 785.670776,155.782547 
	C785.670776,151.661819 785.670776,148.086853 785.670776,144.453857 
	C773.312988,144.453857 761.289673,144.453857 749.395630,144.453857 
	C749.395630,162.481491 749.395630,180.052582 749.395630,197.652832 
	C753.706909,197.652832 757.615051,197.652832 762.053284,197.652832 
	C762.053284,190.736954 762.053284,184.152405 762.053284,176.875961 
	C768.948669,176.875961 775.329285,176.875961 781.625488,176.875961 
	C781.625488,172.914474 781.625488,169.670929 781.625488,165.999680 
	C779.618958,165.999680 777.983826,165.999680 775.390625,165.999557 
M1030.000000,178.499542 
	C1030.000000,171.095459 1030.000000,163.691360 1030.000000,155.789200 
	C1035.768066,155.789200 1040.677979,155.789200 1045.685303,155.789200 
	C1045.685303,151.683838 1045.685303,148.113541 1045.685303,144.406769 
	C1030.695557,144.406769 1016.023376,144.406769 1001.351807,144.406769 
	C1001.351807,148.390930 1001.351807,151.963974 1001.351807,156.056061 
	C1006.598938,156.056061 1011.512329,156.056061 1017.091980,156.056061 
	C1017.091980,170.255432 1017.091980,183.941040 1017.091980,197.666641 
	C1021.686279,197.666641 1025.590210,197.666641 1030.000000,197.666641 
	C1030.000000,191.393478 1030.000000,185.446350 1030.000000,178.499542 
M617.689880,185.998596 
	C616.254883,185.880630 614.819885,185.762680 612.891235,185.604141 
	C612.891235,171.673355 612.891235,158.099640 612.891235,144.445984 
	C608.329834,144.445984 604.306824,144.445984 600.380981,144.445984 
	C600.380981,162.458206 600.380981,180.021866 600.380981,197.680145 
	C613.332031,197.680145 625.899780,197.680145 638.550659,197.680145 
	C638.550659,193.659805 638.550659,189.973282 638.550659,185.999298 
	C631.620239,185.999298 625.137329,185.999298 617.689880,185.998596 
M871.393799,50.000488 
	C868.452148,50.000488 865.510498,50.000488 862.369324,50.000488 
	C862.369324,70.588051 862.369324,90.577003 862.369324,110.692230 
	C867.308716,110.692230 871.876282,110.692230 876.620483,110.692230 
	C876.620483,90.394325 876.620483,70.406044 876.620483,50.249336 
	C874.950989,50.152565 873.645142,50.076870 871.393799,50.000488 
z"/>
<path fill="#0C4FA0" opacity="1.000000" stroke="none" 
	d="
M145.531342,1.000000 
	C146.000000,16.115755 146.000000,31.231512 146.000000,46.999870 
	C143.716049,46.999870 141.942841,46.999855 140.169647,46.999870 
	C128.510742,46.999977 116.844757,47.230602 105.196861,46.872540 
	C101.232407,46.750668 99.074463,48.264309 97.307747,51.348392 
	C84.383240,73.910141 71.836433,96.704384 58.253216,118.862991 
	C54.087765,125.658180 55.530811,129.952667 59.101288,135.836975 
	C68.744896,151.730072 77.760178,168.004227 87.037521,184.119843 
	C90.896400,190.823105 94.666328,197.584015 98.781181,204.127228 
	C99.485100,205.246552 101.719376,205.901657 103.256729,205.919769 
	C115.413612,206.063110 127.572937,206.000015 139.731506,206.000381 
	C141.544952,206.000443 143.358398,206.000412 145.999786,206.000412 
	C145.999786,221.243698 145.999786,236.153198 145.999893,251.531342 
	C121.645775,252.000000 97.291542,252.000000 72.449356,251.637695 
	C65.940079,240.725220 59.945244,230.159836 53.892239,219.627869 
	C38.576900,192.979843 23.282806,166.319290 7.841899,139.744125 
	C6.000190,136.574387 3.301476,133.902603 1.000001,131.000000 
	C1.000000,128.629440 1.000000,126.258888 1.346996,123.590828 
	C2.076691,122.985146 2.593006,122.754379 2.822873,122.357643 
	C12.789517,105.155823 22.720871,87.933571 32.677929,70.726196 
	C42.387524,53.946480 52.193451,37.221943 61.805191,20.386461 
	C65.423012,14.049655 68.614273,7.469315 72.000000,1.000000 
	C96.354225,1.000000 120.708458,1.000000 145.531342,1.000000 
z"/>
<path fill="#000000" opacity="1.000000" stroke="none" 
	d="
M71.531342,1.000000 
	C68.614273,7.469315 65.423012,14.049655 61.805191,20.386461 
	C52.193451,37.221943 42.387524,53.946480 32.677929,70.726196 
	C22.720871,87.933571 12.789517,105.155823 2.822873,122.357643 
	C2.593006,122.754379 2.076691,122.985146 1.346996,123.146667 
	C1.000000,82.425720 1.000000,41.851437 1.000000,1.000000 
	C24.353497,1.000000 47.708092,1.000000 71.531342,1.000000 
z"/>
<path fill="#000000" opacity="1.000000" stroke="none" 
	d="
M1.000001,131.468658 
	C3.301476,133.902603 6.000190,136.574387 7.841899,139.744125 
	C23.282806,166.319290 38.576900,192.979843 53.892239,219.627869 
	C59.945244,230.159836 65.940079,240.725220 71.980698,251.637695 
	C48.387379,252.000000 24.774755,252.000000 1.000000,252.000000 
	C1.000000,211.979248 1.000000,171.958282 1.000001,131.468658 
z"/>
<path fill="#A71E33" opacity="1.000000" stroke="none" 
	d="
M1048.000000,130.625000 
	C791.543030,130.846649 535.086121,130.693573 278.629181,130.487579 
	C278.457855,130.487442 278.287201,129.690018 277.607300,127.999992 
	C534.503357,127.999992 790.785645,127.999992 1047.533936,128.000000 
	C1048.000000,128.750000 1048.000000,129.500000 1048.000000,130.625000 
z"/>
<path fill="#0C4FA0" opacity="1.000000" stroke="none" 
	d="
M1048.000000,63.535347 
	C1042.211914,64.000000 1036.423706,64.000000 1030.112305,64.000000 
	C1030.112305,79.763710 1030.112305,95.005798 1030.112305,110.620422 
	C1025.015747,110.620422 1020.441040,110.620422 1015.153198,110.620422 
	C1015.153198,95.343391 1015.153198,79.975403 1015.153198,64.086487 
	C1008.882446,64.086487 1003.296021,64.086487 997.363220,64.086487 
	C997.363220,59.316467 997.363220,55.074348 997.363220,50.000320 
	C1013.908325,50.000320 1030.485474,50.000320 1047.531372,50.000160 
	C1048.000000,54.356899 1048.000000,58.713799 1048.000000,63.535347 
z"/>
<path fill="#A71E33" opacity="1.000000" stroke="none" 
	d="
M181.534821,189.996429 
	C183.482635,189.001038 185.573120,188.355011 186.392502,186.961548 
	C197.577118,167.941177 208.644318,148.850540 219.520844,129.652786 
	C220.339462,128.207855 220.160706,125.442276 219.311478,123.925629 
	C211.347382,109.702187 203.141586,95.613983 194.992813,81.494110 
	C192.028687,76.358040 188.813873,71.351295 186.141113,66.069145 
	C184.866592,63.550282 183.352539,62.921558 180.758438,62.950802 
	C170.114365,63.070793 159.468124,63.000942 148.413269,63.000942 
	C148.413269,50.746796 148.413269,38.839382 148.413269,26.278067 
	C149.800690,26.193377 151.380966,26.015015 152.961487,26.013054 
	C169.457626,25.992580 185.954102,26.049210 202.449692,25.952196 
	C205.186478,25.936100 206.734421,26.625843 208.222015,29.234406 
	C221.601761,52.696381 235.200836,76.033401 248.761185,99.392197 
	C252.975632,106.651894 257.235229,113.885948 261.539520,121.092682 
	C263.687378,124.688828 264.314484,127.672310 261.772552,131.894852 
	C249.374481,152.489899 237.458633,173.375992 225.434021,194.194809 
	C219.750153,204.035583 214.322571,214.026779 208.491531,223.778015 
	C207.400970,225.601776 204.964828,227.781357 203.117050,227.811676 
	C185.459854,228.101517 167.795609,227.966583 150.133423,227.935150 
	C149.660950,227.934311 149.188843,227.726135 148.365891,227.531845 
	C148.365891,215.314774 148.365891,203.074707 148.365891,189.998291 
	C159.250244,189.998291 170.168396,189.998291 181.534821,189.996429 
z"/>
<path fill="#11AAE2" opacity="1.000000" stroke="none" 
	d="
M141.016205,125.887474 
	C139.627823,129.921066 138.467804,133.631439 136.919159,137.171844 
	C136.269928,138.656082 134.907700,139.898178 133.679520,141.047165 
	C128.806030,145.606384 123.387314,149.683762 119.085083,154.720734 
	C115.628769,158.767319 113.617058,164.133911 116.947784,169.392365 
	C118.025253,171.093460 120.585571,172.736877 122.549217,172.839127 
	C130.161728,173.235550 137.807144,173.000397 145.717697,173.000397 
	C145.717697,182.419846 145.717697,191.476227 145.717697,200.997208 
	C132.089630,200.997208 118.635727,201.082901 105.186554,200.869659 
	C103.782722,200.847412 101.873108,199.366623 101.098221,198.037704 
	C89.378410,177.938721 77.809113,157.751968 66.207123,137.584305 
	C66.126816,137.444717 66.117241,137.253891 66.016037,137.138351 
	C59.540115,129.744293 61.537804,122.840523 66.215096,115.177254 
	C77.314430,96.992134 87.969231,78.526100 98.377014,59.934727 
	C101.243935,54.813541 104.189827,52.471718 110.401138,52.815315 
	C122.012428,53.457634 133.684555,52.999977 145.664459,52.999977 
	C145.664459,61.974705 145.664459,70.699127 145.664459,80.000038 
	C138.381866,80.000038 131.105698,80.109627 123.835457,79.949989 
	C120.600906,79.878960 118.676918,80.588005 116.877342,83.826576 
	C109.294266,97.473305 100.991165,110.721855 93.506783,124.419495 
	C92.380180,126.481377 94.197403,130.151764 95.355537,133.494339 
	C102.073540,123.875572 111.565376,127.514778 119.990303,127.056221 
	C126.512100,126.701256 131.364639,124.129654 133.138931,118.147034 
	C134.043777,115.096069 133.579056,111.417046 132.913498,108.191078 
	C132.362579,105.520828 130.200836,104.498466 127.104752,105.295265 
	C125.331047,105.751747 123.224358,104.914345 121.267578,104.659454 
	C122.203178,102.907524 122.768600,100.759766 124.141693,99.475632 
	C128.829666,95.091408 137.202774,97.487656 141.014771,104.069725 
	C145.144302,111.200081 144.566681,118.341774 141.016205,125.887474 
z"/>
<path fill="#DA1E32" opacity="1.000000" stroke="none" 
	d="
M165.442047,98.215988 
	C169.408051,99.930962 170.468094,102.729012 169.732910,106.741653 
	C167.631866,106.741653 165.244431,107.384872 163.483002,106.608253 
	C159.771790,104.972000 158.213333,107.652252 157.297089,109.732574 
	C154.101456,116.988373 160.555954,126.692551 168.696030,126.915871 
	C173.286224,127.041801 177.911362,125.992760 182.497009,126.152969 
	C186.199280,126.282318 189.865967,127.430000 193.562698,128.819229 
	C195.868835,127.983604 195.738785,126.163666 194.240692,123.675774 
	C186.054077,110.080154 178.075104,96.359192 169.836258,82.795822 
	C169.028275,81.465683 166.978302,80.214005 165.436768,80.126633 
	C159.828064,79.808708 154.190445,80.001122 148.286438,80.001122 
	C148.286438,75.620735 148.286438,71.693047 148.286438,66.998940 
	C156.833160,66.998940 165.444489,67.370178 174.004822,66.869484 
	C179.789963,66.531120 183.264969,68.105255 186.175079,73.459969 
	C195.159729,89.992111 204.694504,106.228569 214.203568,122.469818 
	C216.237778,125.944183 215.870941,128.436188 213.822968,131.883881 
	C204.295151,147.923492 195.088364,164.156662 185.968292,180.433517 
	C183.769119,184.358475 181.386093,186.399063 176.466522,186.140366 
	C167.197342,185.652939 157.884293,185.999725 148.298157,185.999725 
	C148.298157,181.644440 148.298157,177.716721 148.298157,173.000687 
	C153.805420,173.000687 159.398041,173.092392 164.985443,172.961731 
	C167.752167,172.897034 170.803970,174.059555 172.563416,170.106339 
	C174.580811,165.573578 176.909180,161.090088 173.108810,156.800186 
	C168.318436,151.392761 162.870117,146.573318 157.862823,141.349548 
	C156.533707,139.962982 155.702591,138.065796 154.779373,136.330414 
	C152.943115,132.878815 150.721603,129.531036 149.541122,125.857010 
	C148.023239,121.132805 145.866608,115.874290 146.644302,111.297821 
	C148.581436,99.898712 153.155319,97.206749 165.442047,98.215988 
z"/>
<path fill="#0C4FA0" opacity="1.000000" stroke="none" 
	d="
M804.000122,83.000000 
	C804.000122,71.892914 804.000122,61.285831 804.000122,50.575306 
	C816.363831,50.575306 828.247559,50.274048 840.106140,50.689713 
	C847.080322,50.934166 850.535339,56.379848 851.740051,62.337833 
	C852.969116,68.415733 852.102112,74.620483 846.445312,78.881859 
	C846.119019,79.127655 845.798096,79.380554 845.223755,79.823769 
	C852.147888,83.872520 856.067566,89.532265 854.651611,97.468117 
	C853.237976,105.390968 847.218811,110.576431 838.728210,110.881882 
	C827.448975,111.287666 816.144165,110.981979 804.000122,110.981979 
	C804.000122,101.633850 804.000122,92.566925 804.000122,83.000000 
M827.427856,86.000046 
	C824.812988,86.000046 822.198120,86.000046 819.410522,86.000046 
	C819.410522,90.274269 819.410522,93.961273 819.410522,97.996567 
	C824.457031,97.996567 829.142151,98.372040 833.714294,97.816925 
	C835.617554,97.585838 838.453674,95.595108 838.757568,94.002296 
	C839.144958,91.972000 838.028137,88.588005 836.410828,87.508240 
	C834.323792,86.114822 831.099976,86.424042 827.427856,86.000046 
M819.004028,66.680733 
	C819.004028,69.277992 819.004028,71.875252 819.004028,74.948257 
	C823.553955,74.948257 827.522705,75.262871 831.419678,74.868500 
	C836.275208,74.377144 838.497620,69.927635 836.331177,65.793610 
	C834.536133,62.368248 821.414185,61.572853 819.099854,64.769249 
	C818.935425,64.996323 819.038208,65.416870 819.004028,66.680733 
z"/>
<path fill="#0C4FA0" opacity="1.000000" stroke="none" 
	d="
M573.781921,80.336838 
	C573.015991,81.280067 572.084534,82.451561 572.067810,83.635956 
	C571.943359,92.455643 572.000244,101.277901 572.000244,110.548447 
	C567.047424,110.548447 562.352234,110.548447 557.325073,110.548447 
	C557.325073,90.572899 557.325073,70.669258 557.325073,50.436432 
	C563.423584,49.815479 568.852966,48.707985 573.290710,55.445011 
	C579.063721,64.209091 586.236145,72.052628 592.834900,80.269348 
	C593.447144,81.031693 594.265503,81.628418 595.750732,83.012733 
	C595.750732,71.733330 595.750732,61.245884 595.750732,50.386497 
	C600.971252,50.386497 605.546570,50.386497 610.564209,50.386497 
	C610.564209,70.320999 610.564209,90.343681 610.564209,110.981934 
	C607.031860,110.981934 603.566406,111.183395 600.147766,110.871140 
	C598.973145,110.763855 597.684998,109.563278 596.840820,108.539001 
	C589.191101,99.257126 581.628296,89.903603 573.781921,80.336838 
z"/>
<path fill="#0C4FA0" opacity="1.000000" stroke="none" 
	d="
M919.757996,100.269348 
	C914.014954,93.256706 908.521545,86.503395 902.267212,78.814560 
	C902.267212,89.941864 902.267212,100.079842 902.267212,110.601936 
	C897.056763,110.601936 892.484253,110.601936 887.452393,110.601936 
	C887.452393,90.728004 887.452393,70.718620 887.452393,50.709717 
	C896.154480,48.725868 898.749451,49.926971 904.012085,56.840752 
	C910.838989,65.809723 918.028198,74.502869 925.962280,84.443405 
	C925.962280,72.261780 925.962280,61.421551 925.962280,50.298912 
	C930.813171,50.298912 935.052063,50.298912 939.646606,50.298912 
	C939.646606,70.352592 939.646606,90.242943 939.646606,110.145966 
	C930.519165,112.854034 926.856812,111.065918 919.757996,100.269348 
z"/>
<path fill="#0C4FA0" opacity="1.000000" stroke="none" 
	d="
M493.266144,59.810524 
	C501.027283,71.732658 502.501862,83.782867 496.199829,96.503265 
	C491.834229,105.315033 484.354767,109.919624 475.107117,110.783684 
	C466.063293,111.628708 456.878754,110.967590 447.380646,110.967590 
	C447.380646,90.585747 447.380646,70.585548 447.380646,49.999493 
	C459.390900,50.469662 471.392975,48.202377 482.766876,52.990490 
	C486.449982,54.540970 489.614655,57.323040 493.266144,59.810524 
M461.999817,91.385742 
	C461.999817,93.468613 461.999817,95.551483 461.999817,97.588173 
	C470.306549,98.702316 477.382385,98.401649 481.968872,91.025780 
	C486.552673,83.654236 486.039948,76.042114 481.417084,69.201836 
	C476.809631,62.384373 469.413483,63.785870 461.999817,64.363434 
	C461.999817,73.232605 461.999817,81.821014 461.999817,91.385742 
z"/>
<path fill="#0C4FA0" opacity="1.000000" stroke="none" 
	d="
M383.000183,60.040833 
	C383.000183,56.588200 383.000183,53.627953 383.000183,50.337326 
	C388.070007,50.337326 392.644348,50.337326 397.999817,50.337326 
	C397.999817,55.636917 397.899139,60.900459 398.024414,66.158615 
	C398.193756,73.265892 397.873352,80.474152 398.978394,87.446457 
	C400.265015,95.564308 404.861298,98.723679 411.826935,97.983307 
	C417.221344,97.409927 421.899292,91.364555 421.970490,84.509361 
	C422.076019,74.348869 421.993378,64.186478 422.014191,54.024937 
	C422.016479,52.894501 422.170654,51.764378 422.277069,50.327965 
	C427.090881,50.327965 431.665527,50.327965 437.000000,50.327965 
	C437.000000,61.327965 437.161224,72.255898 436.913605,83.174553 
	C436.825500,87.059860 436.006470,90.987282 435.068909,94.783806 
	C432.058716,106.972984 417.382660,113.027390 405.607544,111.542381 
	C390.034851,109.578438 383.185394,96.085617 383.016602,82.521996 
	C382.925385,75.193466 383.000244,67.862877 383.000183,60.040833 
z"/>
<path fill="#0C4FA0" opacity="1.000000" stroke="none" 
	d="
M962.028442,111.000046 
	C958.242493,111.000046 954.951721,111.000046 951.333984,111.000046 
	C951.333984,90.599953 951.333984,70.705971 951.333984,50.405270 
	C965.047913,50.405270 978.730957,50.405270 992.708557,50.405270 
	C992.708557,54.829174 992.708557,59.068691 992.708557,63.840118 
	C983.958130,63.840118 975.377563,63.840118 966.405029,63.840118 
	C966.405029,67.385910 966.405029,70.407898 966.405029,73.965714 
	C973.835144,73.965714 981.083801,73.965714 988.659424,73.965714 
	C988.659424,78.058815 988.659424,81.634949 988.659424,85.744843 
	C981.396912,85.744843 974.149597,85.744843 966.453552,85.744843 
	C966.453552,89.954300 966.453552,93.643951 966.453552,97.871323 
	C975.406189,97.871323 984.317322,97.871323 993.610107,97.871323 
	C993.610107,102.296143 993.610107,106.204170 993.610107,111.000046 
	C983.333679,111.000046 972.928711,111.000046 962.028442,111.000046 
z"/>
<path fill="#0C4FA0" opacity="1.000000" stroke="none" 
	d="
M539.943176,50.000275 
	C543.062195,50.000275 545.689697,50.000275 548.655640,50.000275 
	C548.655640,54.720840 548.655640,58.961449 548.655640,63.999725 
	C544.383850,63.999725 540.129700,63.999725 535.875549,63.999725 
	C531.555542,63.999725 527.235535,63.999725 522.459106,63.999725 
	C522.459106,67.279480 522.459106,70.298912 522.459106,73.864586 
	C529.725891,73.864586 536.973572,73.864586 544.606812,73.864586 
	C544.606812,77.955162 544.606812,81.531570 544.606812,85.816940 
	C537.385986,85.816940 530.009644,85.816940 522.326477,85.816940 
	C522.326477,90.086922 522.326477,93.662521 522.326477,97.769913 
	C531.299438,97.769913 540.210876,97.769913 549.558655,97.769913 
	C549.558655,102.311569 549.558655,106.334877 549.558655,110.683014 
	C535.565063,110.683014 521.665710,110.683014 507.382263,110.683014 
	C507.382263,90.697449 507.382263,70.802338 507.382263,50.000275 
	C517.982910,50.000275 528.717285,50.000275 539.943176,50.000275 
z"/>
<path fill="#0C4FA0" opacity="1.000000" stroke="none" 
	d="
M306.951965,64.108116 
	C303.598419,64.087967 300.036377,63.347507 296.947388,64.241463 
	C293.564423,65.220482 292.734741,68.289902 296.157501,70.490173 
	C298.698090,72.123352 301.795197,72.923065 304.691986,73.961258 
	C307.932983,75.122795 311.255219,76.058060 314.494019,77.225166 
	C326.658630,81.608635 327.909393,96.148773 321.327332,104.941017 
	C317.296356,110.325554 310.737518,111.528786 304.463715,111.900375 
	C294.334076,112.500366 284.918304,109.710747 276.318024,104.500183 
	C276.318024,104.034164 276.210938,103.664413 276.333435,103.401718 
	C281.406769,92.522057 281.355835,92.693924 292.838318,96.298302 
	C296.532074,97.457764 300.583099,97.745819 304.484558,97.836823 
	C305.911926,97.870125 307.942749,96.468376 308.618103,95.162598 
	C309.024597,94.376579 307.685974,91.808655 306.547333,91.264915 
	C302.887085,89.516998 298.840149,88.585732 295.157562,86.875977 
	C290.643036,84.779968 285.244934,83.178658 282.172211,79.664291 
	C274.610565,71.015778 279.344025,55.137409 291.889130,51.232895 
	C301.828125,48.139503 311.440338,50.279701 320.596375,54.873943 
	C325.746155,57.457958 321.013214,60.053944 320.038513,62.922554 
	C316.306305,63.350227 313.226013,63.475063 310.149719,63.664391 
	C309.078735,63.730305 308.017609,63.955608 306.951965,64.108116 
z"/>
<path fill="#0C4FA0" opacity="1.000000" stroke="none" 
	d="
M782.944824,107.155518 
	C779.593323,97.999496 779.593323,97.999458 770.247314,97.999756 
	C768.915161,97.999794 767.554260,98.177132 766.256348,97.966553 
	C762.753296,97.398239 761.096924,98.987923 760.305481,102.270538 
	C759.618347,105.120285 758.510925,107.868729 757.543030,110.802124 
	C752.623779,110.802124 747.826782,110.802124 742.373230,110.802124 
	C744.334167,105.028954 746.115601,99.474625 748.102722,93.994873 
	C753.031921,80.402000 757.964294,66.808136 763.171021,53.321083 
	C763.735718,51.858379 765.994934,50.424194 767.661926,50.148487 
	C770.732544,49.640629 773.947205,50.003468 777.446167,50.003468 
	C784.746887,70.091469 792.009338,90.074135 799.600403,110.961006 
	C794.460754,110.961006 790.194641,111.186722 785.983521,110.805489 
	C784.903442,110.707710 783.996826,108.694244 782.944824,107.155518 
M776.206726,85.884407 
	C774.565063,80.689987 772.923462,75.495567 770.902222,69.100121 
	C768.581970,75.794464 766.747864,81.086349 764.818848,86.652077 
	C768.975525,86.652077 772.563416,86.652077 776.206726,85.884407 
z"/>
<path fill="#0C4FA0" opacity="1.000000" stroke="none" 
	d="
M702.984436,84.052238 
	C706.024658,97.233620 716.695740,102.083824 726.594238,95.068939 
	C728.248962,93.896263 729.435974,92.063576 731.308289,90.025063 
	C735.029602,92.259979 739.133972,94.724998 743.243896,97.193329 
	C735.497498,109.871490 722.142334,114.502975 708.232178,110.149864 
	C693.259583,105.464279 686.427185,91.075073 687.318359,79.333939 
	C688.560242,62.971622 696.983398,52.785210 713.675598,50.180580 
	C725.514160,48.333317 738.441833,53.618652 742.104187,64.076698 
	C739.880249,65.631203 737.561707,67.358849 735.134766,68.917824 
	C732.776001,70.432968 730.767822,70.232109 728.511108,68.124222 
	C723.013672,62.989250 715.661926,61.994789 710.484497,65.245064 
	C704.649475,68.908203 701.397583,76.872856 702.984436,84.052238 
z"/>
<path fill="#A71E33" opacity="1.000000" stroke="none" 
	d="
M731.923584,169.330322 
	C731.510315,186.365067 721.999268,196.940201 705.636292,198.879974 
	C695.182434,200.119232 682.896606,191.050858 679.496887,180.001266 
	C675.887146,168.269318 679.537842,155.655380 688.383606,149.295395 
	C698.409485,142.086884 710.843323,141.910812 721.090454,149.070053 
	C726.622009,152.934692 729.498962,158.617935 730.985962,165.074417 
	C731.279663,166.349945 731.581482,167.623611 731.923584,169.330322 
M699.186829,157.359161 
	C692.967590,160.514664 691.700806,165.938766 691.945679,172.333679 
	C692.228210,179.715500 697.276855,185.986328 704.175293,186.913422 
	C709.581543,187.639984 715.868225,182.672379 717.520264,175.849609 
	C718.982422,169.810944 718.335938,163.817978 713.645996,159.334671 
	C709.826782,155.683807 705.004822,154.742050 699.186829,157.359161 
z"/>
<path fill="#A71E33" opacity="1.000000" stroke="none" 
	d="
M514.012329,168.625626 
	C516.734192,184.894226 502.177612,198.380508 488.187958,198.379517 
	C474.966675,198.378586 463.688385,189.196136 461.338409,176.116196 
	C459.346466,165.028992 463.057648,152.667740 476.157654,146.508041 
	C493.600525,138.306305 513.470398,149.381668 514.012329,168.625626 
M475.006073,167.572754 
	C474.928650,168.563477 474.831024,169.553116 474.776855,170.545105 
	C474.208069,180.961243 481.824585,186.996735 488.712280,186.820007 
	C494.390350,186.674301 499.305481,181.537735 500.787445,175.335587 
	C502.177582,169.517715 499.457581,160.847733 495.425629,158.198410 
	C487.453125,152.959793 476.945801,157.149994 475.006073,167.572754 
z"/>
<path fill="#A71E33" opacity="1.000000" stroke="none" 
	d="
M569.533447,147.258850 
	C577.165710,152.731628 581.078979,159.699326 582.219299,168.825195 
	C584.002014,183.093445 572.097412,197.958450 555.979248,198.397156 
	C535.270386,198.960831 522.423706,175.403336 532.074097,157.945847 
	C539.549255,144.423340 554.954102,140.063690 569.533447,147.258850 
M567.169067,178.443909 
	C567.708984,177.073761 568.416199,175.744415 568.761902,174.326904 
	C571.149292,164.537415 563.110962,154.662537 553.784180,156.072174 
	C546.622742,157.154541 544.118469,162.458008 542.541931,168.792252 
	C540.776184,175.886597 544.201721,182.796524 551.479309,185.738419 
	C557.627197,188.223618 563.219849,185.853973 567.169067,178.443909 
z"/>
<path fill="#A71E33" opacity="1.000000" stroke="none" 
	d="
M396.999939,167.000046 
	C396.999939,159.216919 396.999939,151.933777 396.999939,144.329803 
	C401.418121,144.329803 405.324127,144.329803 409.766602,144.329803 
	C409.766602,150.965286 409.766602,157.543381 409.766602,164.558075 
	C416.974670,164.558075 423.661926,164.558075 430.890442,164.558075 
	C430.890442,157.902145 430.890442,151.324020 430.890442,144.378799 
	C435.318329,144.378799 439.223297,144.378799 443.569214,144.378799 
	C443.569214,161.982651 443.569214,179.659241 443.569214,197.669434 
	C439.581909,197.669434 435.675995,197.669434 431.233765,197.669434 
	C431.233765,190.703644 431.233765,183.788879 431.233765,176.442200 
	C424.025848,176.442200 417.338562,176.442200 410.110199,176.442200 
	C410.110199,183.430908 410.110199,190.340546 410.110199,197.620148 
	C405.680450,197.620148 401.774261,197.620148 396.999939,197.620148 
	C396.999939,187.641983 396.999939,177.570999 396.999939,167.000046 
z"/>
<path fill="#A71E33" opacity="1.000000" stroke="none" 
	d="
M949.000000,160.003387 
	C949.000000,154.551300 949.000000,149.598282 949.000000,144.327652 
	C961.754333,144.327652 973.984131,144.327652 986.608398,144.327652 
	C986.608398,147.958817 986.608398,151.531631 986.608398,155.818909 
	C978.711731,155.818909 970.671326,155.818909 962.326294,155.818909 
	C962.326294,159.088013 962.326294,161.664871 962.326294,164.773712 
	C968.953125,164.773712 975.535767,164.773712 982.555664,164.773712 
	C982.555664,168.646378 982.555664,171.999893 982.555664,175.895874 
	C975.900452,175.895874 969.320557,175.895874 962.377319,175.895874 
	C962.377319,179.323196 962.377319,182.234497 962.377319,185.851349 
	C970.310669,185.851349 978.351990,185.851349 986.686646,185.851349 
	C986.686646,190.118927 986.686646,193.692337 986.686646,197.634399 
	C974.333496,197.634399 962.100952,197.634399 949.000000,197.634399 
	C949.000000,185.300888 949.000000,172.901657 949.000000,160.003387 
z"/>
<path fill="#A71E33" opacity="1.000000" stroke="none" 
	d="
M278.638641,151.928650 
	C288.602173,141.761322 301.512115,141.070053 315.946381,149.808105 
	C315.331116,151.099060 314.723694,152.424835 314.073456,153.729279 
	C310.804321,160.287598 310.786163,160.108841 304.048279,157.671173 
	C301.035034,156.581055 297.646149,156.189896 294.424042,156.172806 
	C293.007538,156.165298 291.581879,157.883560 290.160339,158.818237 
	C291.112823,160.207993 291.769440,162.322083 293.072235,162.854279 
	C297.301910,164.582184 301.827332,165.568176 306.132263,167.133087 
	C318.355194,171.576355 321.645477,187.026169 311.542389,194.567551 
	C307.882599,197.299393 302.349854,198.872955 297.763062,198.689621 
	C291.184937,198.426682 284.657013,196.198441 278.184479,194.514099 
	C276.607697,194.103775 275.330200,192.543274 273.657379,191.323746 
	C274.458252,190.311783 274.951660,189.689804 275.443451,189.066544 
	C277.288818,186.727859 278.786499,182.990707 281.071442,182.423309 
	C283.611053,181.792679 286.808472,184.329849 289.829010,184.976303 
	C293.066254,185.669159 296.431061,185.993958 299.739960,185.992096 
	C300.801819,185.991486 302.802826,184.333389 302.721130,183.624054 
	C302.568695,182.301056 301.474365,180.553513 300.291748,179.989166 
	C297.516052,178.664642 294.436066,177.992599 291.516968,176.950745 
	C285.193329,174.693817 277.756134,173.273117 276.751465,165.052032 
	C276.243835,160.898270 277.772064,156.495728 278.638641,151.928650 
z"/>
<path fill="#A71E33" opacity="1.000000" stroke="none" 
	d="
M912.535217,186.718994 
	C914.255920,185.389114 915.603882,184.216446 916.951843,183.043762 
	C915.678772,181.730042 914.638611,179.854019 913.087524,179.211716 
	C908.998901,177.518661 904.698914,176.327850 900.463867,174.998474 
	C894.092407,172.998566 890.339783,168.440277 890.318237,162.047348 
	C890.298096,156.067886 892.201416,150.221375 898.120605,146.998489 
	C907.151306,142.081451 916.291748,143.078522 925.227539,147.170044 
	C928.802917,148.807205 928.715637,152.335709 926.179626,157.591217 
	C924.208130,161.677002 922.058960,159.069733 919.689758,158.384125 
	C916.256897,157.390686 912.733643,156.358704 909.208496,156.190353 
	C907.565552,156.111908 905.827637,158.022873 904.132751,159.032104 
	C905.451477,160.536880 906.485962,162.720383 908.144104,163.414673 
	C912.508911,165.242371 917.217834,166.229187 921.656433,167.904129 
	C929.195007,170.748901 932.639526,175.600708 931.792725,182.864563 
	C930.974792,189.880798 928.675964,194.509094 920.402283,197.291626 
	C909.926636,200.814682 900.329407,197.860535 890.810059,193.882843 
	C888.669739,192.988510 888.175842,191.534454 889.296265,189.161850 
	C892.539978,182.293304 892.421448,182.246231 899.742188,183.982330 
	C903.878418,184.963211 908.022156,185.912613 912.535217,186.718994 
z"/>
<path fill="#0C4FA0" opacity="1.000000" stroke="none" 
	d="
M658.037109,63.999725 
	C655.264526,63.999729 652.972229,63.999729 650.172119,63.999729 
	C650.172119,79.709572 650.172119,94.938553 650.172119,110.581268 
	C644.980286,110.581268 640.291504,110.581268 635.084595,110.581268 
	C635.084595,95.201645 635.084595,79.972038 635.084595,64.218681 
	C629.013855,64.218681 623.437866,64.218681 617.433289,64.218681 
	C617.433289,59.345036 617.433289,54.991692 617.433289,50.312786 
	C634.102966,50.312786 650.659302,50.312786 667.608643,50.312786 
	C667.608643,54.623814 667.608643,58.862434 667.608643,63.999725 
	C664.665222,63.999725 661.591309,63.999725 658.037109,63.999725 
z"/>
<path fill="#0C4FA0" opacity="1.000000" stroke="none" 
	d="
M333.116699,63.999611 
	C331.005859,63.999542 329.372467,63.999542 327.371094,63.999542 
	C327.371094,59.333435 327.371094,55.095070 327.371094,50.425720 
	C343.990814,50.425720 360.666260,50.425720 377.672546,50.425720 
	C377.672546,54.752163 377.672546,58.989960 377.672546,63.762733 
	C372.034943,63.762733 366.458008,63.762733 360.195007,63.762733 
	C360.195007,79.624535 360.195007,94.977043 360.195007,110.658913 
	C354.941345,110.658913 350.370453,110.658913 345.106018,110.658913 
	C345.106018,95.287064 345.106018,79.932671 345.106018,63.999683 
	C340.822296,63.999683 337.208221,63.999683 333.116699,63.999611 
z"/>
<path fill="#A71E33" opacity="1.000000" stroke="none" 
	d="
M333.618408,160.800079 
	C336.958679,150.761597 344.455719,145.908279 353.720001,144.225449 
	C361.280640,142.852081 369.040985,143.919327 375.224548,149.220337 
	C377.277802,150.980545 380.073639,155.313156 379.461243,156.109390 
	C377.504303,158.653641 374.153320,160.169983 371.213837,161.863098 
	C370.805450,162.098312 369.536804,161.247971 368.916992,160.643265 
	C364.032501,155.877625 357.418579,154.400146 352.752106,157.118423 
	C347.665894,160.081161 344.024597,167.815125 345.166260,173.230270 
	C346.731354,180.653946 352.251038,186.731979 358.142181,186.765396 
	C360.638062,186.779556 363.423615,185.887146 365.589447,184.591141 
	C372.288635,180.582336 373.629303,180.488907 380.997406,185.583405 
	C378.023376,192.995895 371.846863,196.802521 364.599609,197.764160 
	C348.837952,199.855545 337.867615,195.011032 332.928162,178.134583 
	C331.413696,172.960175 333.153595,166.833267 333.618408,160.800079 
z"/>
<path fill="#A71E33" opacity="1.000000" stroke="none" 
	d="
M854.597290,186.692993 
	C858.562988,184.545486 862.173950,182.563553 865.784973,180.581619 
	C865.671509,180.128052 865.558044,179.674469 865.444580,179.220901 
	C866.783508,180.070435 868.092407,180.972214 869.466309,181.760818 
	C877.019958,186.096603 875.270081,189.894287 869.690918,193.470352 
	C854.575684,203.158752 833.078186,198.683014 827.709961,179.112396 
	C824.801880,168.510788 826.598450,158.355621 835.023071,150.624390 
	C843.494690,142.849976 853.682556,142.331726 864.188293,145.760452 
	C866.289307,146.446136 868.272766,147.952316 869.914978,149.499863 
	C875.627441,154.883179 874.945374,158.721954 867.666748,161.493546 
	C866.390442,161.979553 864.073608,161.231110 862.905273,160.254074 
	C856.388733,154.804779 850.919678,154.339172 844.748901,159.085556 
	C840.475708,162.372375 838.808960,171.847565 841.108276,177.404526 
	C843.587708,183.397034 847.943542,186.376068 854.597290,186.692993 
z"/>
<path fill="#A71E33" opacity="1.000000" stroke="none" 
	d="
M775.869690,165.999619 
	C777.983826,165.999680 779.618958,165.999680 781.625488,165.999680 
	C781.625488,169.670929 781.625488,172.914474 781.625488,176.875961 
	C775.329285,176.875961 768.948669,176.875961 762.053284,176.875961 
	C762.053284,184.152405 762.053284,190.736954 762.053284,197.652832 
	C757.615051,197.652832 753.706909,197.652832 749.395630,197.652832 
	C749.395630,180.052582 749.395630,162.481491 749.395630,144.453857 
	C761.289673,144.453857 773.312988,144.453857 785.670776,144.453857 
	C785.670776,148.086853 785.670776,151.661819 785.670776,155.782547 
	C778.026062,155.782547 770.443420,155.782547 762.434509,155.782547 
	C762.434509,159.335266 762.434509,162.357529 762.434509,165.999557 
	C766.824036,165.999557 771.107300,165.999557 775.869690,165.999619 
z"/>
<path fill="#A71E33" opacity="1.000000" stroke="none" 
	d="
M1030.000000,178.999374 
	C1030.000000,185.446350 1030.000000,191.393478 1030.000000,197.666641 
	C1025.590210,197.666641 1021.686279,197.666641 1017.091980,197.666641 
	C1017.091980,183.941040 1017.091980,170.255432 1017.091980,156.056061 
	C1011.512329,156.056061 1006.598938,156.056061 1001.351807,156.056061 
	C1001.351807,151.963974 1001.351807,148.390930 1001.351807,144.406769 
	C1016.023376,144.406769 1030.695557,144.406769 1045.685303,144.406769 
	C1045.685303,148.113541 1045.685303,151.683838 1045.685303,155.789200 
	C1040.677979,155.789200 1035.768066,155.789200 1030.000000,155.789200 
	C1030.000000,163.691360 1030.000000,171.095459 1030.000000,178.999374 
z"/>
<path fill="#A71E33" opacity="1.000000" stroke="none" 
	d="
M618.172119,185.998947 
	C625.137329,185.999298 631.620239,185.999298 638.550659,185.999298 
	C638.550659,189.973282 638.550659,193.659805 638.550659,197.680145 
	C625.899780,197.680145 613.332031,197.680145 600.380981,197.680145 
	C600.380981,180.021866 600.380981,162.458206 600.380981,144.445984 
	C604.306824,144.445984 608.329834,144.445984 612.891235,144.445984 
	C612.891235,158.099640 612.891235,171.673355 612.891235,185.604141 
	C614.819885,185.762680 616.254883,185.880630 618.172119,185.998947 
z"/>
<path fill="#0C4FA0" opacity="1.000000" stroke="none" 
	d="
M871.866516,50.000832 
	C873.645142,50.076870 874.950989,50.152565 876.620483,50.249336 
	C876.620483,70.406044 876.620483,90.394325 876.620483,110.692230 
	C871.876282,110.692230 867.308716,110.692230 862.369324,110.692230 
	C862.369324,90.577003 862.369324,70.588051 862.369324,50.000488 
	C865.510498,50.000488 868.452148,50.000488 871.866516,50.000832 
z"/>
<path fill="#0C4FA0" opacity="1.000000" stroke="none" 
	d="
M307.161682,64.396088 
	C308.017609,63.955608 309.078735,63.730305 310.149719,63.664391 
	C313.226013,63.475063 316.306305,63.350227 319.750549,63.120457 
	C319.219086,64.915009 318.322052,66.789139 317.350586,68.818741 
	C313.650085,67.285515 310.510742,65.984787 307.161682,64.396088 
z"/>
<path fill="#000000" opacity="1.000000" stroke="none" 
	d="
M827.896790,86.000046 
	C831.099976,86.424042 834.323792,86.114822 836.410828,87.508240 
	C838.028137,88.588005 839.144958,91.972000 838.757568,94.002296 
	C838.453674,95.595108 835.617554,97.585838 833.714294,97.816925 
	C829.142151,98.372040 824.457031,97.996567 819.410522,97.996567 
	C819.410522,93.961273 819.410522,90.274269 819.410522,86.000046 
	C822.198120,86.000046 824.812988,86.000046 827.896790,86.000046 
z"/>
<path fill="#000000" opacity="1.000000" stroke="none" 
	d="
M819.010376,66.214081 
	C819.038208,65.416870 818.935425,64.996323 819.099854,64.769249 
	C821.414185,61.572853 834.536133,62.368248 836.331177,65.793610 
	C838.497620,69.927635 836.275208,74.377144 831.419678,74.868500 
	C827.522705,75.262871 823.553955,74.948257 819.004028,74.948257 
	C819.004028,71.875252 819.004028,69.277992 819.010376,66.214081 
z"/>
<path fill="#000000" opacity="1.000000" stroke="none" 
	d="
M461.999817,90.897583 
	C461.999817,81.821014 461.999817,73.232605 461.999817,64.363434 
	C469.413483,63.785870 476.809631,62.384373 481.417084,69.201836 
	C486.039948,76.042114 486.552673,83.654236 481.968872,91.025780 
	C477.382385,98.401649 470.306549,98.702316 461.999817,97.588173 
	C461.999817,95.551483 461.999817,93.468613 461.999817,90.897583 
z"/>
<path fill="#000000" opacity="1.000000" stroke="none" 
	d="
M776.179077,86.268242 
	C772.563416,86.652077 768.975525,86.652077 764.818848,86.652077 
	C766.747864,81.086349 768.581970,75.794464 770.902222,69.100121 
	C772.923462,75.495567 774.565063,80.689987 776.179077,86.268242 
z"/>
<path fill="#000000" opacity="1.000000" stroke="none" 
	d="
M699.550293,157.194183 
	C705.004822,154.742050 709.826782,155.683807 713.645996,159.334671 
	C718.335938,163.817978 718.982422,169.810944 717.520264,175.849609 
	C715.868225,182.672379 709.581543,187.639984 704.175293,186.913422 
	C697.276855,185.986328 692.228210,179.715500 691.945679,172.333679 
	C691.700806,165.938766 692.967590,160.514664 699.550293,157.194183 
z"/>
<path fill="#000000" opacity="1.000000" stroke="none" 
	d="
M475.016357,167.174881 
	C476.945801,157.149994 487.453125,152.959793 495.425629,158.198410 
	C499.457581,160.847733 502.177582,169.517715 500.787445,175.335587 
	C499.305481,181.537735 494.390350,186.674301 488.712280,186.820007 
	C481.824585,186.996735 474.208069,180.961243 474.776855,170.545105 
	C474.831024,169.553116 474.928650,168.563477 475.016357,167.174881 
z"/>
<path fill="#000000" opacity="1.000000" stroke="none" 
	d="
M567.054443,178.815765 
	C563.219849,185.853973 557.627197,188.223618 551.479309,185.738419 
	C544.201721,182.796524 540.776184,175.886597 542.541931,168.792252 
	C544.118469,162.458008 546.622742,157.154541 553.784180,156.072174 
	C563.110962,154.662537 571.149292,164.537415 568.761902,174.326904 
	C568.416199,175.744415 567.708984,177.073761 567.054443,178.815765 
z"/>
</svg>