<svg xmlns="http://www.w3.org/2000/svg" version="1.1" xmlns:xlink="http://www.w3.org/1999/xlink" xmlns:svgjs="http://svgjs.com/svgjs" width="100" height="100" x="0" y="0" viewBox="0 0 512 512" style="enable-background:new 0 0 512 512" xml:space="preserve" class=""><g><g data-name="OUTLINE"><path d="M344 248a96 96 0 1 0 96 96 96.109 96.109 0 0 0-96-96Zm-40 165.237v-8.994a40.023 40.023 0 0 1 20.574-34.966L344 358.485l19.426 10.792A40.023 40.023 0 0 1 384 404.243v8.994a79.712 79.712 0 0 1-80 0Zm24-91.36V312a16 16 0 0 1 32 0v9.878a16.01 16.01 0 0 1-8.23 13.987l-7.77 4.317-7.77-4.317a16.01 16.01 0 0 1-8.23-13.987Zm71.907 79.27a56.03 56.03 0 0 0-28.712-45.856l-10.74-5.968A32.017 32.017 0 0 0 376 321.878V312a32 32 0 0 0-64 0v9.878a32.02 32.02 0 0 0 15.545 27.445l-10.74 5.968a56.03 56.03 0 0 0-28.712 45.857 80 80 0 1 1 111.814 0ZM311.374 163.825A23.73 23.73 0 0 0 332.259 176H467.74a24 24 0 0 0 20.58-36.348l-67.74-112.901a24 24 0 0 0-41.161-.001l-67.741 112.902a23.732 23.732 0 0 0-.305 24.173Zm14.025-15.94 67.742-112.903a8 8 0 0 1 13.718 0l67.742 112.903A8 8 0 0 1 467.74 160H332.26a8 8 0 0 1-6.86-12.115Z" fill="#03c4ff" data-original="#000000" class=""></path><path d="M392 56h16v56h-16zM392 128h16v16h-16zM496 369.257v-50.514l-23.922-4.339-7.254-22.561 16.816-17.716-29.414-40.916-21.907 10.725-18.893-13.882 3.289-24.09-47.695-15.671-11.377 21.498h-23.286l-11.378-21.498-25.966 8.532A112 112 0 1 0 184 296a111.448 111.448 0 0 0 37.132-6.31l2.044 2.153-7.254 22.561-23.922 4.34V336h-21.96l-4.113-22.67-44.243-14.223-16.81 15.955-22.532-16.198 10.141-20.713-27.424-37.324-22.778 3.109-8.574-26.095 20.282-10.735v-46.212l-20.282-10.735 8.574-26.095 22.778 3.109 27.424-37.324-10.141-20.713 22.531-16.198 16.81 15.955 44.244-14.222L170.038 32h27.923l4.112 22.67 44.243 14.223 16.811-15.956 22.531 16.199-10.141 20.713 22.196 30.208 12.894-9.473-16.46-22.401 11.824-24.149-44.254-31.817-19.535 18.54-26.078-8.383L211.32 16H156.68l-4.783 26.374-26.079 8.384-19.532-18.54L62.03 64.034l11.824 24.149-16.056 21.851-26.557-3.624-16.947 51.577 23.696 12.541v26.944l-23.696 12.54 16.947 51.58 26.557-3.626 16.056 21.851-11.824 24.149 44.256 31.817 19.533-18.54 26.078 8.383L156.68 352H192v17.257l23.922 4.339 7.254 22.561-16.816 17.716 29.415 40.916 21.906-10.725 18.893 13.882-3.289 24.09 47.695 15.671 11.377-21.497 23.286-.001 11.378 21.498 47.694-15.67-3.29-24.09 18.894-13.883 21.906 10.725 29.416-40.916-16.817-17.716 7.254-22.561ZM88 184a96 96 0 1 1 189.803 20.48l-4.518 1.484 3.29 24.09-18.894 13.882-13.206-6.467a87.26 87.26 0 0 0-41.357-52.037A31.829 31.829 0 0 0 216 159.75V136a32 32 0 0 0-64 0v23.751a31.827 31.827 0 0 0 12.882 25.682 87.432 87.432 0 0 0-44.643 70.267A95.786 95.786 0 0 1 88 184Zm112-48v23.751a15.924 15.924 0 0 1-10.059 14.855L184 176.983l-5.942-2.377A15.925 15.925 0 0 1 168 159.751V136a16 16 0 0 1 32 0Zm-16 144a95.41 95.41 0 0 1-48-12.887v-4.95a71.654 71.654 0 0 1 45.26-66.85l2.74-1.096 2.74 1.095a71.516 71.516 0 0 1 42.482 47.013l-22.863 31.802 2.492 2.625A95.918 95.918 0 0 1 184 280Zm276.92 135.285-13.797 19.192-18.47-9.043-34.366 25.25 2.772 20.311-22.21 7.298-9.572-18.084-42.554.001-9.57 18.083-22.212-7.298 2.772-20.31-34.366-25.251-18.47 9.043-13.796-19.192 14.23-14.993-13.092-40.728L208 355.897v-23.794l20.219-3.667 13.092-40.728-14.23-14.993 13.796-19.193 18.47 9.044 34.366-25.25-2.772-20.311 22.21-7.298 9.572 18.084h42.554l9.57-18.084 22.212 7.298-2.772 20.31 34.366 25.251 18.47-9.043 13.796 19.192-14.23 14.993 13.092 40.728L480 332.103v23.794l-20.219 3.667-13.092 40.728ZM155.994 429.238l8.012-13.85a184.276 184.276 0 0 1-71.589-75.06l-14.215 7.344a200.247 200.247 0 0 0 77.792 81.566ZM179.337 423.32l-6.674 14.541a199.424 199.424 0 0 0 25.007 9.497l4.66-15.306a183.31 183.31 0 0 1-22.993-8.732ZM33.185 279.182l-15.916 1.636a240.1 240.1 0 0 0 3.875 24.83l15.656-3.295a224.51 224.51 0 0 1-3.615-23.171Z" fill="#03c4ff" data-original="#000000" class=""></path><path d="m40.63 317.798-15.38 4.404a241.71 241.71 0 0 0 85.053 124.528A237.804 237.804 0 0 0 256 496v-16a221.932 221.932 0 0 1-135.976-45.978 225.614 225.614 0 0 1-79.393-116.224Z" fill="#03c4ff" data-original="#000000" class=""></path></g></g></svg>